<?xml version="1.0" encoding="UTF-8" standalone="no"?>
<!-- Created with Inkscape (http://www.inkscape.org/) -->

<svg
   width="77.923378mm"
   height="78.000504mm"
   viewBox="0 0 77.923378 78.000504"
   version="1.1"
   id="svg5"
   xml:space="preserve"
   inkscape:version="1.2.1 (9c6d41e, 2022-07-14)"
   sodipodi:docname="favicon.svg"
   xmlns:inkscape="http://www.inkscape.org/namespaces/inkscape"
   xmlns:sodipodi="http://sodipodi.sourceforge.net/DTD/sodipodi-0.dtd"
   xmlns="http://www.w3.org/2000/svg"
   xmlns:svg="http://www.w3.org/2000/svg"><sodipodi:namedview
     id="namedview7"
     pagecolor="#ffffff"
     bordercolor="#000000"
     borderopacity="0.25"
     inkscape:showpageshadow="2"
     inkscape:pageopacity="0.0"
     inkscape:pagecheckerboard="0"
     inkscape:deskcolor="#d1d1d1"
     inkscape:document-units="mm"
     showgrid="false"
     inkscape:zoom="2.0712039"
     inkscape:cx="32.348336"
     inkscape:cy="141.70502"
     inkscape:window-width="2560"
     inkscape:window-height="1027"
     inkscape:window-x="0"
     inkscape:window-y="25"
     inkscape:window-maximized="1"
     inkscape:current-layer="layer1" /><defs
     id="defs2" /><g
     inkscape:label="Layer 1"
     inkscape:groupmode="layer"
     id="layer1"
     transform="translate(-69.528189,-67.939286)"><path
       style="fill:#083c5d;fill-opacity:1;stroke-width:0.264583"
       d="m 105.00408,145.79721 c -3.11916,-0.29358 -5.864611,-0.88793 -9.095451,-1.96904 -5.77969,-1.934 -10.34952,-4.80617 -14.95193,-9.39737 -4.6396,-4.62832 -7.48971,-9.22154 -9.50932,-15.3252 -1.3966,-4.22078 -1.91919,-7.54297 -1.91919,-12.20054 0,-10.674377 3.85354,-19.958187 11.42851,-27.533166 4.64327,-4.643268 9.2372,-7.492428 15.33264,-9.509323 4.208531,-1.392542 7.541821,-1.917991 12.200541,-1.923246 4.60347,-0.0052 7.875,0.510313 12.17821,1.918965 6.0833,1.991368 10.63802,4.815578 15.35497,9.52105 4.6456,4.634296 7.52967,9.286933 9.5136,15.347523 1.39624,4.26529 1.91491,7.563837 1.91491,12.178197 0,10.6744 -3.85354,19.9582 -11.42851,27.53318 -4.6493,4.6493 -9.30254,7.53234 -15.35497,9.51361 -4.97859,1.62973 -10.74156,2.30866 -15.66401,1.84536 z m 2.42747,-6.2161 v -2.51355 l 1.25677,-2.6e-4 1.25677,-2.7e-4 v 2.44778 2.44778 l 1.71979,-0.0847 c 3.45786,-0.17038 8.62844,-1.56793 11.88729,-3.21299 l 1.58308,-0.79913 -1.17894,-1.99409 c -0.64841,-1.09699 -1.17893,-2.08804 -1.17893,-2.20257 0,-0.11453 0.46506,-0.46962 1.03347,-0.78908 l 1.03347,-0.58085 1.23339,2.13833 1.23338,2.13832 0.70971,-0.45056 c 2.81747,-1.7887 7.32766,-6.19076 9.25848,-9.0365 l 1.11574,-1.64445 -2.12028,-1.22298 c -1.16615,-0.67264 -2.11656,-1.30185 -2.11202,-1.39826 0.005,-0.0964 0.27451,-0.60805 0.59994,-1.13699 l 0.59168,-0.96171 1.97975,1.15572 c 1.08886,0.63564 2.06704,1.15771 2.17373,1.16014 0.32212,0.007 1.49043,-2.5046 2.30684,-4.95992 0.885,-2.66157 1.47685,-5.45551 1.73676,-8.19866 l 0.18175,-1.91823 h -2.5404 -2.54039 l -5.3e-4,-1.25677 -5.3e-4,-1.25677 2.38294,0.085 c 1.9442,0.0693 2.41142,0.0107 2.53759,-0.31803 0.23759,-0.61916 -0.57477,-5.571637 -1.35034,-8.232127 -0.38155,-1.30889 -1.15528,-3.3647 -1.71939,-4.56848 l -1.02565,-2.18869 -2.02133,1.19504 c -1.11173,0.65728 -2.10863,1.19505 -2.21533,1.19505 -0.1067,0 -0.45538,-0.46506 -0.77484,-1.03347 l -0.58085,-1.03348 2.13833,-1.23338 2.13832,-1.23338 -0.45056,-0.70971 c -1.78936,-2.81851 -6.19095,-7.327796 -9.03905,-9.260215 l -1.64701,-1.117483 -1.23298,2.122016 c -0.67813,1.167109 -1.3062,2.118302 -1.3957,2.113759 -0.0895,-0.0046 -0.5955,-0.274513 -1.12444,-0.59994 l -0.96171,-0.591682 1.15572,-1.979748 c 0.63564,-1.088861 1.15771,-2.067039 1.16014,-2.173727 0.006,-0.276092 -2.18858,-1.345162 -4.36677,-2.126929 -2.27321,-0.815875 -6.21662,-1.680909 -8.79181,-1.928593 l -1.91823,-0.184497 v 2.547729 2.547728 l -1.25677,2.65e-4 -1.25677,2.64e-4 v -2.447779 -2.44778 l -1.71979,0.08474 c -3.46071,0.170519 -8.628581,1.56799 -11.893781,3.216254 l -1.58957,0.802413 1.18542,2.005057 c 0.65199,1.102778 1.18543,2.092354 1.18543,2.199055 0,0.106699 -0.46507,0.45538 -1.03347,0.774843 l -1.03348,0.580845 -1.23338,-2.138325 -1.23339,-2.138326 -0.7097,0.458391 c -2.93592,1.896274 -7.31378,6.166408 -9.25956,9.031705 l -1.11814,1.64653 2.12202,1.23297 c 1.1671,0.67814 2.1183,1.30621 2.11375,1.39571 -0.005,0.0895 -0.27451,0.5955 -0.59994,1.12443 l -0.59168,0.96172 -1.97975,-1.15572 c -1.08886,-0.63564 -2.06703,-1.15771 -2.17372,-1.16015 -0.27609,-0.006 -1.34516,2.18859 -2.12693,4.36678 -0.81021,2.25743 -1.66839,6.195947 -1.91569,8.791797 l -0.18273,1.91823 h 2.54039 2.5404 l 2.6e-4,1.25677 2.6e-4,1.25677 h -2.44777 -2.44778 l 0.0847,1.7198 c 0.17037,3.45785 1.56792,8.62843 3.21298,11.88728 l 0.79914,1.58309 1.99408,-1.17894 c 1.09675,-0.64841 2.0878,-1.17893 2.20233,-1.17893 0.11454,0 0.46962,0.46506 0.78909,1.03347 l 0.58084,1.03347 -2.13832,1.23338 -2.13833,1.23339 0.45057,0.70971 c 1.78935,2.8185 6.19094,7.32779 9.03905,9.26021 l 1.64701,1.11748 1.23297,-2.12201 c 0.67814,-1.16711 1.3062,-2.11831 1.3957,-2.11376 0.0895,0.005 0.59481,0.27409 1.1229,0.59901 l 0.96018,0.59075 -1.20361,2.08362 c -1.40316,2.42905 -1.47687,2.27273 1.69433,3.59291 3.3037,1.37533 8.167971,2.49066 11.413411,2.61698 l 0.85998,0.0337 z"
       id="path302"
       sodipodi:nodetypes="ssssssssssssssscccccccsccsscccsscscscscsscccccccsscssscccsscscscscsscccccccsscssscccsscscscscssccccccccscssscccsscscscssccc"
       inkscape:export-filename="favicon.png"
       inkscape:export-xdpi="20.861517"
       inkscape:export-ydpi="20.861517" /><path
       style="fill:#083c5d;fill-opacity:1;stroke-width:1"
       d="m 110.833,129.63892 c -0.36214,-0.0793 -0.93536,-0.25605 -1.27382,-0.39276 -0.81529,-0.32931 -21.908986,-12.85884 -22.358056,-13.28055 -0.69255,-0.65035 -0.98578,-1.62538 -0.75931,-2.52478 0.13408,-0.53245 1.0587,-2.22615 1.36823,-2.50627 0.32384,-0.29308 0.82533,-0.23121 1.51072,0.18636 0.56664,0.34523 0.63106,0.36263 0.73999,0.19981 0.0656,-0.0981 2.48562,-4.05966 5.37777,-8.8035 2.89214,-4.743838 5.399676,-8.759222 5.572296,-8.923075 0.38195,-0.362573 0.72796,-0.327841 1.3593,0.136453 l 0.42075,0.309425 0.17698,-0.230803 c 0.0973,-0.126941 1.369,-2.300842 2.82591,-4.830889 3.52318,-6.118256 3.43907,-5.981623 3.76527,-6.116739 0.57435,-0.237902 1.18387,0.184332 1.18257,0.8192 -3.1e-4,0.174501 -1.08542,2.158076 -2.89247,5.287629 -1.59055,2.754601 -2.89096,5.036349 -2.8898,5.07055 0.002,0.04995 10.49801,6.152729 10.76832,6.260919 0.0418,0.0167 2.37551,-3.856475 5.18596,-8.607153 3.96706,-6.70577 5.17673,-8.672754 5.40868,-8.794794 0.56811,-0.298917 1.21717,0.09902 1.21717,0.746233 0,0.293799 -1.27443,2.513742 -6.63261,11.553377 l -6.6326,11.189697 2.6036,4.52079 c 1.43198,2.48643 2.64065,4.57935 2.68594,4.65092 0.0456,0.072 1.57679,0.43569 3.42786,0.81416 1.84003,0.37622 3.62507,0.75647 3.96675,0.845 2.51707,0.6522 4.5871,2.55444 5.49909,5.05336 0.16728,0.45836 0.3406,1.12926 0.38516,1.4909 l 0.081,0.65752 0.66149,0.0633 c 1.0573,0.10108 1.11582,0.20347 1.11582,1.95237 0,1.38863 -0.01,1.452 -0.30437,1.98378 -0.32194,0.58103 -0.7676,0.98369 -1.36507,1.23333 -0.52513,0.21941 -21.1923,0.20664 -22.19852,-0.0137 z m 21.7338,-1.74613 c 0.28219,-0.21666 0.40913,-0.5622 0.40913,-1.11369 v -0.52961 h -10.54998 c -9.91323,0 -10.58682,-0.0115 -11.16044,-0.19048 -0.40215,-0.12548 -4.35041,-2.41284 -11.570546,-6.7032 -6.02804,-3.582 -10.99838,-6.47197 -11.04519,-6.42215 -0.19008,0.20229 -0.5247,0.93875 -0.5247,1.15482 0,0.12702 0.10586,0.35012 0.23524,0.49577 0.2376,0.2675 20.594316,12.42295 21.562906,12.8757 1.21909,0.56984 0.84958,0.55281 12.07523,0.55665 8.0212,0.003 10.44044,-0.0256 10.56835,-0.12381 z m -8.43337,-3.55129 c 0.33447,-1.16654 0.93089,-1.99412 1.91451,-2.65651 0.75396,-0.50774 1.71049,-0.76496 2.87128,-0.77213 l 0.76346,-0.005 -0.60331,-0.55689 c -0.68352,-0.63091 -1.5325,-1.11564 -2.37629,-1.35674 -0.31626,-0.0904 -3.09199,-0.68182 -6.1683,-1.31432 -3.0763,-0.63251 -5.78406,-1.22179 -6.01724,-1.30951 -0.23317,-0.0877 -0.59634,-0.33602 -0.80702,-0.55178 -0.48367,-0.49531 -3.89878,-6.38071 -4.1045,-7.07341 -0.17443,-0.5874 -0.1978,-1.31747 -0.0578,-1.80567 l 0.0955,-0.33293 -3.15486,-1.98712 c -1.73517,-1.09292 -3.28085,-2.11895 -3.43483,-2.28007 -0.67482,-0.70607 -0.85816,-1.6819 -0.54328,-2.891537 0.11561,-0.444123 0.15509,-0.949705 0.12793,-1.638179 -0.0346,-0.877976 -0.0772,-1.062869 -0.3595,-1.562609 -0.17613,-0.311744 -0.36764,-0.582612 -0.42559,-0.601929 -0.0754,-0.02514 -5.358556,8.443124 -5.597906,8.972824 -0.0155,0.0343 0.3343,0.35397 0.77733,0.71037 2.989646,2.40506 4.554346,6.08623 4.248666,9.99564 -0.045,0.57501 -0.17244,1.39832 -0.28327,1.82958 -0.11084,0.43126 -0.19461,0.78945 -0.18617,0.79599 0.26342,0.20382 10.50876,6.22455 10.79112,6.34146 0.36268,0.15016 1.1186,0.17072 6.4517,0.17548 4.74676,0.004 6.04892,-0.0226 6.07837,-0.1253 z m 6.92273,-0.35329 c -0.0365,-0.26619 -0.1209,-0.66608 -0.18758,-0.88865 l -0.12125,-0.40468 -1.31643,6.3e-4 c -1.42939,6.3e-4 -1.88589,0.0847 -2.42207,0.44603 -0.3503,0.23603 -1.03758,1.05359 -1.03758,1.23423 0,0.0563 1.07297,0.0964 2.57562,0.0964 h 2.57562 z m -31.729456,-7.40369 c 0.0433,-0.16189 0.13135,-0.73514 0.19567,-1.27389 0.2937,-2.45984 -0.57434,-5.27849 -2.23621,-7.26122 -0.77273,-0.92192 -1.96333,-1.91988 -2.07143,-1.73626 -0.0403,0.0685 -0.89542,1.46543 -1.90016,3.10421 -1.22669,2.00079 -1.78669,3.00432 -1.7047,3.05484 2.06627,1.27327 7.46756,4.44709 7.53926,4.4301 0.0544,-0.0129 0.13427,-0.15588 0.17757,-0.31778 z m 17.775726,-1.75683 c -0.11464,-0.18688 -0.39103,-0.65571 -0.61422,-1.04184 l -0.40578,-0.70206 -0.75342,0.4343 c -0.41439,0.23887 -0.75343,0.47172 -0.75343,0.51745 0,0.0457 0.12938,0.22593 0.28751,0.40043 0.23262,0.25671 0.45712,0.35512 1.17615,0.51557 1.30677,0.2916 1.3173,0.29037 1.06319,-0.12385 z m -2.34389,-3.0239 c 0.21563,-0.12498 0.40533,-0.23628 0.42157,-0.24732 0.0499,-0.034 -0.65241,-1.19393 -0.72424,-1.19612 -0.13827,-0.004 -1.4466,0.7856 -1.44753,0.87386 -5.3e-4,0.0505 0.14434,0.3458 0.32194,0.65622 l 0.32292,0.5644 0.35664,-0.21189 c 0.19616,-0.11654 0.53307,-0.31416 0.7487,-0.43915 z m -2.00432,-2.55173 c 0.36821,-0.20592 0.69682,-0.41863 0.73024,-0.4727 0.0704,-0.11399 -1.22719,-2.41739 -1.39298,-2.47265 -0.30029,-0.1001 -0.86142,0.86143 -0.86142,1.47607 0,0.30886 0.67374,1.84367 0.80932,1.84367 0.0249,0 0.34663,-0.16847 0.71484,-0.37439 z m -0.75829,-5.00892 c 0.50688,-0.21178 0.63103,-0.20029 0.97728,0.0905 l 0.29553,0.24816 0.80555,-1.34657 c 0.80373,-1.34351 0.80503,-1.34691 0.57501,-1.49481 -0.48993,-0.315 -10.57494,-6.111658 -10.59615,-6.090446 -0.0123,0.01234 0.07,0.351087 0.183,0.752768 0.25199,0.895768 0.2723,2.449175 0.0435,3.322977 -0.20498,0.782671 -0.20014,1.045871 0.0242,1.315651 0.10062,0.12101 1.56319,1.08763 3.25014,2.14804 l 3.06718,1.92801 0.49869,-0.35827 c 0.27428,-0.19705 0.66853,-0.42924 0.87612,-0.51598 z m -28.659056,21.79437 c -0.4764,-0.44384 -0.38327,-1.14086 0.19128,-1.43158 0.55025,-0.27844 1.77745,-0.10007 1.98544,0.28857 0.20195,0.37734 0.12146,0.9066 -0.17312,1.13831 -0.39533,0.31096 -1.67165,0.31396 -2.0036,0.005 z m 4.41754,-0.0446 c -0.35212,-0.35212 -0.34648,-0.87705 0.0131,-1.21496 l 0.26968,-0.25346 3.78153,-0.0266 c 4.06238,-0.0286 4.15374,-0.0182 4.44788,0.50584 0.18351,0.32694 0.0965,0.74193 -0.21685,1.03383 -0.22016,0.20511 -0.35429,0.21198 -4.13311,0.21198 h -3.90557 z m -4.43586,-7.99997 c -0.76143,-0.76143 -0.0314,-1.66783 1.23778,-1.53684 0.71842,0.0741 1.05961,0.36616 1.05961,0.90689 0,0.63159 -0.31525,0.83638 -1.28745,0.83638 -0.66066,0 -0.8402,-0.0367 -1.00994,-0.20643 z m -0.005,-12.5351 c -0.40191,-0.40191 -0.40356,-0.77296 -0.005,-1.17132 l 0.3056,-0.3056 h 2.51135 c 2.46484,0 2.51649,0.004 2.789,0.23883 0.35895,0.30875 0.38629,0.93257 0.0554,1.26375 -0.21275,0.21293 -0.33193,0.2238 -2.7838,0.25381 l -2.56152,0.0313 z m 3.03471,-8.653592 c -0.64343,-0.261394 -0.83022,-0.993692 -0.37067,-1.453236 0.22738,-0.227384 0.34702,-0.256617 1.05023,-0.256617 0.7032,0 0.82284,0.02923 1.05022,0.256617 0.32668,0.326678 0.3339,0.791895 0.018,1.159156 -0.203,0.236005 -0.33954,0.28341 -0.91479,0.3176 -0.37189,0.0221 -0.74674,0.01152 -0.83299,-0.02352 z m 4.32662,-0.08002 c -0.20488,-0.09074 -0.36809,-0.26578 -0.43991,-0.4718 -0.13001,-0.372947 -0.078,-0.586808 0.22444,-0.922798 0.21038,-0.233722 0.2313,-0.235231 3.25944,-0.235231 h 3.0477 l 0.22732,0.24197 c 0.3239,0.344772 0.30468,0.903425 -0.0423,1.229607 l -0.26961,0.253455 -2.84067,0.02453 c -2.23025,0.01926 -2.91067,-0.0065 -3.16641,-0.119731 z m -7.35584,-5.495424 c -0.76143,-0.761427 -0.0314,-1.667832 1.23778,-1.536841 0.71842,0.07415 1.05961,0.366162 1.05961,0.906897 0,0.631583 -0.31525,0.836379 -1.28745,0.836379 -0.66066,0 -0.8402,-0.0367 -1.00994,-0.206435 z m 3.55461,0 c -0.50019,-0.500192 -0.2963,-1.267656 0.39001,-1.468038 0.27056,-0.079 2.48462,-0.10445 7.16998,-0.08243 l 6.778556,0.03187 0.25227,0.293335 c 0.32967,0.383337 0.32797,0.842762 -0.004,1.175081 l -0.25661,0.256616 h -7.061716 c -6.89198,0 -7.06666,-0.005 -7.26814,-0.206435 z m 1.80489,-5.360715 c -0.31718,-0.346541 -0.37684,-0.652347 -0.19562,-1.002777 0.37643,-0.727949 2.04528,-0.727949 2.42171,0 0.18122,0.35043 0.12156,0.656236 -0.19562,1.002777 -0.18735,0.204689 -0.31917,0.235232 -1.01524,0.235232 -0.69606,0 -0.82788,-0.03054 -1.01523,-0.235232 z m 4.42728,-0.04039 c -0.34756,-0.347566 -0.35609,-0.769168 -0.0234,-1.156072 l 0.25225,-0.293336 5.00126,-0.03187 c 3.400966,-0.02168 5.126516,0.0047 5.392706,0.08243 0.6947,0.202847 0.86717,0.887775 0.36242,1.439249 l -0.2153,0.235232 h -5.247176 -5.24716 z"
       id="path522"
       sodipodi:nodetypes="cssssscscscccscscssssccscscscccscsccsscssssssscscsccccccccccccsccssscscsccccscccssccscscscsssccssssssccsscssscsssscccsccscsscscccsssccccccsssccccssccccscscccssssssssssscsscsssssssscsscsccsccscsssscscscscccc" /></g></svg>
