<?xml version="1.0" encoding="UTF-8" standalone="no"?>
<!-- Created with Inkscape (http://www.inkscape.org/) -->

<svg
   width="79.375mm"
   height="79.375mm"
   viewBox="0 0 79.375 79.375"
   version="1.1"
   id="svg5"
   xml:space="preserve"
   inkscape:version="1.2.1 (9c6d41e, 2022-07-14)"
   sodipodi:docname="favicon.svg"
   xmlns:inkscape="http://www.inkscape.org/namespaces/inkscape"
   xmlns:sodipodi="http://sodipodi.sourceforge.net/DTD/sodipodi-0.dtd"
   xmlns="http://www.w3.org/2000/svg"
   xmlns:svg="http://www.w3.org/2000/svg"><sodipodi:namedview
     id="namedview7"
     pagecolor="#ffffff"
     bordercolor="#000000"
     borderopacity="0.25"
     inkscape:showpageshadow="2"
     inkscape:pageopacity="0.0"
     inkscape:pagecheckerboard="0"
     inkscape:deskcolor="#d1d1d1"
     inkscape:document-units="mm"
     showgrid="false"
     inkscape:zoom="2.0712039"
     inkscape:cx="-46.349855"
     inkscape:cy="149.91281"
     inkscape:window-width="1970"
     inkscape:window-height="1027"
     inkscape:window-x="133"
     inkscape:window-y="27"
     inkscape:window-maximized="0"
     inkscape:current-layer="layer1" /><defs
     id="defs2" /><g
     inkscape:label="Layer 1"
     inkscape:groupmode="layer"
     id="layer1"
     transform="translate(-69.528189,-67.939289)"><rect
       style="fill:#ffffff;fill-opacity:1;stroke:#000000;stroke-width:0;stroke-linejoin:round"
       id="rect1350"
       width="77.923378"
       height="78.000504"
       x="-17.082066"
       y="67.939285"
       ry="0"
       inkscape:export-filename="favicon_192.png"
       inkscape:export-xdpi="62.584549"
       inkscape:export-ydpi="62.584549" /><path
       style="fill:#083c5d;fill-opacity:1;stroke-width:0.264583"
       d="m 105.66495,147.1692 c -3.17726,-0.29875 -5.973858,-0.90357 -9.264885,-2.00374 -5.887359,-1.96808 -10.542319,-4.89086 -15.230467,-9.56296 -4.72603,-4.70988 -7.629234,-9.38404 -9.686467,-15.59526 -1.422617,-4.29516 -1.954942,-7.67589 -1.954942,-12.41553 0,-10.862481 3.925327,-20.309888 11.641409,-28.018351 4.729769,-4.72509 9.409278,-7.624457 15.618269,-9.676893 4.286933,-1.417081 7.682313,-1.951789 12.427823,-1.957137 4.68923,-0.0053 8.0217,0.519305 12.40508,1.95278 6.19662,2.02646 10.83619,4.900437 15.64101,9.688827 4.73214,4.715961 7.66994,9.450585 9.69083,15.617973 1.42225,4.340452 1.95058,7.697121 1.95058,12.392801 0,10.8625 -3.92533,20.30989 -11.64141,28.01836 -4.73591,4.73123 -9.47584,7.66507 -15.64101,9.68125 -5.07134,1.65845 -10.94167,2.34935 -15.95582,1.87788 z m 2.47269,-6.32564 v -2.55784 l 1.28019,-2.6e-4 1.28018,-2.8e-4 v 2.49092 2.49091 l 1.75183,-0.0862 c 3.52227,-0.17339 8.78917,-1.59556 12.10873,-3.26961 l 1.61257,-0.81321 -1.2009,-2.02923 c -0.66049,-1.11632 -1.20089,-2.12484 -1.20089,-2.24139 0,-0.11654 0.47372,-0.47789 1.05272,-0.80298 l 1.05272,-0.59109 1.25637,2.17601 1.25636,2.17601 0.72293,-0.4585 c 2.86995,-1.82022 7.46416,-6.29986 9.43095,-9.19574 l 1.13653,-1.67343 -2.15978,-1.24453 c -1.18788,-0.68449 -2.15599,-1.32479 -2.15137,-1.4229 0.005,-0.0981 0.27963,-0.61877 0.61112,-1.15703 l 0.6027,-0.97865 2.01663,1.17608 c 1.10915,0.64684 2.10555,1.17811 2.21423,1.18059 0.32812,0.007 1.51819,-2.54874 2.34981,-5.04733 0.90149,-2.70847 1.50436,-5.55164 1.76911,-8.34313 l 0.18514,-1.95203 h -2.58772 -2.58772 l -5.4e-4,-1.27892 -5.4e-4,-1.27892 2.42733,0.0865 c 1.98042,0.0705 2.45634,0.0109 2.58486,-0.32363 0.24202,-0.63007 -0.58547,-5.66982 -1.37549,-8.377194 -0.38866,-1.331954 -1.1768,-3.423991 -1.75142,-4.648984 l -1.04476,-2.227258 -2.05898,1.216098 c -1.13244,0.668863 -2.14791,1.216109 -2.2566,1.216109 -0.10869,0 -0.46386,-0.473255 -0.78928,-1.051682 l -0.59167,-1.051691 2.17817,-1.255114 2.17815,-1.255115 -0.45895,-0.722216 c -1.82269,-2.868177 -6.30628,-7.456924 -9.20744,-9.423396 l -1.67769,-1.137175 -1.25595,2.15941 c -0.69076,1.187675 -1.33053,2.15563 -1.4217,2.151007 -0.0912,-0.0047 -0.60659,-0.27935 -1.14539,-0.610512 l -0.97962,-0.602109 1.17725,-2.014634 c 0.64748,-1.108049 1.17928,-2.103464 1.18175,-2.212032 0.006,-0.280957 -2.22935,-1.368866 -4.44812,-2.164409 -2.31555,-0.830252 -6.33243,-1.710529 -8.95559,-1.962578 l -1.95396,-0.187748 v 2.592624 2.592623 l -1.28018,2.7e-4 -1.28019,2.69e-4 V 74.40741 71.916496 l -1.75182,0.08623 c -3.52518,0.173524 -8.789325,1.595621 -12.115352,3.27293 l -1.619182,0.816553 1.207503,2.040389 c 0.664136,1.122211 1.207514,2.129225 1.207514,2.237806 0,0.10858 -0.473734,0.463405 -1.052723,0.788497 l -1.052732,0.591081 -1.256357,-2.176006 -1.256366,-2.176007 -0.722921,0.466469 c -2.990613,1.929689 -7.450027,6.27507 -9.432055,9.190859 l -1.138969,1.675544 2.161551,1.254697 c 1.188841,0.69009 2.157761,1.329228 2.153126,1.420305 -0.0051,0.09108 -0.279624,0.605994 -0.611116,1.144244 l -0.602702,0.978668 -2.016631,-1.176086 c -1.109144,-0.646841 -2.105536,-1.178111 -2.214213,-1.180594 -0.281234,-0.0061 -1.370219,2.227157 -2.166553,4.44373 -0.825303,2.29721 -1.69947,6.305135 -1.951377,8.946725 l -0.186134,1.95203 h 2.587715 2.587724 l 2.65e-4,1.27892 2.65e-4,1.27892 h -2.493369 -2.493379 l 0.08628,1.7501 c 0.173543,3.51879 1.597128,8.78048 3.272834,12.09676 l 0.814027,1.61098 2.031227,-1.19971 c 1.117181,-0.65984 2.126693,-1.19971 2.243357,-1.19971 0.116673,0 0.478368,0.47326 0.80379,1.05169 l 0.59166,1.05168 -2.178154,1.25511 -2.178165,1.25513 0.458964,0.72221 c 1.822683,2.86817 6.306269,7.45692 9.207436,9.42339 l 1.677692,1.13717 1.255939,-2.1594 c 0.690773,-1.18768 1.330533,-2.15564 1.4217,-2.15101 0.09117,0.005 0.605891,0.27892 1.143818,0.60957 l 0.978067,0.60116 -1.226031,2.12034 c -1.4293,2.47185 -1.504383,2.31277 1.725893,3.65622 3.365244,1.39956 8.320124,2.53455 11.626024,2.66309 l 0.876,0.0343 z"
       id="path302"
       sodipodi:nodetypes="ssssssssssssssscccccccsccsscccsscscscscsscccccccsscssscccsscscscscsscccccccsscssscccsscscscscssccccccccscssscccsscscscssccc"
       inkscape:export-filename="favicon_144.png"
       inkscape:export-xdpi="46.080002"
       inkscape:export-ydpi="46.080002" /><path
       style="fill:#083c5d;fill-opacity:1;stroke-width:1"
       d="m 111.60246,130.72618 c -0.36889,-0.0807 -0.95279,-0.26057 -1.29755,-0.39969 -0.83048,-0.33511 -22.317125,-13.08543 -22.77456,-13.51457 -0.705452,-0.66181 -1.004144,-1.65402 -0.773455,-2.56927 0.136577,-0.54183 1.078422,-2.26538 1.393718,-2.55044 0.329873,-0.29824 0.840705,-0.23528 1.538863,0.18965 0.577196,0.35131 0.642816,0.36902 0.753775,0.20333 0.06682,-0.0998 2.531924,-4.1312 5.477951,-8.95863 2.946018,-4.827437 5.500268,-8.913579 5.676098,-9.080319 0.38907,-0.368963 0.74152,-0.333618 1.38463,0.138857 l 0.42858,0.314878 0.18028,-0.23487 c 0.0991,-0.129178 1.3945,-2.341387 2.87855,-4.916018 3.58882,-6.22607 3.50314,-6.087029 3.83542,-6.224526 0.58505,-0.242094 1.20592,0.18758 1.2046,0.833635 -3.2e-4,0.177576 -1.10564,2.196105 -2.94636,5.380807 -1.62018,2.803141 -2.94481,5.125098 -2.94363,5.159901 0.002,0.05083 10.69357,6.261155 10.96892,6.371245 0.0426,0.017 2.41976,-3.92443 5.28257,-8.758823 4.04096,-6.823937 5.27317,-8.825583 5.50944,-8.949774 0.57869,-0.304184 1.23984,0.100765 1.23984,0.759383 0,0.298976 -1.29817,2.558039 -6.75617,11.756967 l -6.75615,11.386877 2.6521,4.60046 c 1.45865,2.53024 2.68984,4.66004 2.73597,4.73287 0.0464,0.0733 1.60617,0.44337 3.49172,0.82851 1.87431,0.38285 3.6926,0.7698 4.04065,0.85989 2.56396,0.66369 4.67255,2.59945 5.60153,5.14241 0.17039,0.46644 0.34694,1.14916 0.39233,1.51717 l 0.0825,0.66911 0.67381,0.0644 c 1.077,0.10286 1.13661,0.20706 1.13661,1.98678 0,1.4131 -0.0102,1.47758 -0.31004,2.01873 -0.32794,0.59127 -0.7819,1.00103 -1.3905,1.25507 -0.53491,0.22327 -21.58709,0.21028 -22.61205,-0.0139 z m 22.13867,-1.7769 c 0.28745,-0.22048 0.41676,-0.57211 0.41676,-1.13332 v -0.53894 h -10.74652 c -10.0979,0 -10.78404,-0.0117 -11.36834,-0.19384 -0.40965,-0.12769 -4.43146,-2.45536 -11.7861,-6.82132 -6.14033,-3.64512 -11.203262,-6.58602 -11.250944,-6.53532 -0.193621,0.20586 -0.534474,0.95529 -0.534474,1.17517 0,0.12926 0.107832,0.35629 0.239622,0.50451 0.242026,0.27221 20.977966,12.64186 21.964596,13.10259 1.2418,0.57988 0.86541,0.56255 12.30018,0.56646 8.17062,0.003 10.63493,-0.026 10.76522,-0.12599 z m -8.59047,-3.61387 c 0.3407,-1.1871 0.94823,-2.02926 1.95018,-2.70333 0.768,-0.51668 1.74235,-0.77844 2.92476,-0.78573 l 0.77769,-0.005 -0.61455,-0.5667 c -0.69626,-0.64203 -1.56105,-1.1353 -2.42056,-1.38065 -0.32215,-0.092 -3.14959,-0.69384 -6.28321,-1.33748 -3.13361,-0.64366 -5.89181,-1.24332 -6.12933,-1.33259 -0.23752,-0.0892 -0.60745,-0.34194 -0.82206,-0.5615 -0.49268,-0.50404 -3.97141,-6.49315 -4.18096,-7.19806 -0.17768,-0.59775 -0.20148,-1.34068 -0.0589,-1.83749 l 0.0973,-0.33879 -3.21363,-2.02214 c -1.76749,-1.11218 -3.34197,-2.15629 -3.49881,-2.32025 -0.68739,-0.71851 -0.87415,-1.71154 -0.5534,-2.94249 0.11776,-0.451948 0.15797,-0.966439 0.13031,-1.667045 -0.0352,-0.893448 -0.0786,-1.081599 -0.3662,-1.590145 -0.17941,-0.317238 -0.37449,-0.592879 -0.43352,-0.612536 -0.0768,-0.02558 -5.458376,8.591906 -5.702185,9.130936 -0.01579,0.0349 0.340528,0.36021 0.791811,0.72289 3.045344,2.44744 4.639184,6.19348 4.327814,10.17178 -0.0458,0.58515 -0.17565,1.42296 -0.28855,1.86182 -0.1129,0.43886 -0.19823,0.80336 -0.18964,0.81002 0.26833,0.20741 10.70453,6.33424 10.99215,6.45321 0.36944,0.1528 1.13944,0.17373 6.57189,0.17857 4.83518,0.004 6.1616,-0.023 6.1916,-0.12751 z m 7.05169,-0.35952 c -0.0372,-0.27088 -0.12315,-0.67782 -0.19107,-0.90431 l -0.12351,-0.41181 -1.34095,6.4e-4 c -1.45602,6.4e-4 -1.92103,0.0862 -2.46719,0.45389 -0.35683,0.24019 -1.05691,1.07216 -1.05691,1.25598 0,0.0573 1.09295,0.0981 2.6236,0.0981 h 2.6236 z m -32.320535,-7.53416 c 0.04411,-0.16474 0.133795,-0.74809 0.199315,-1.29633 0.29917,-2.50319 -0.58504,-5.37151 -2.277868,-7.38918 -0.787125,-0.93816 -1.999905,-1.95371 -2.110018,-1.76685 -0.04105,0.0697 -0.912101,1.49125 -1.935558,3.15891 -1.249542,2.03604 -1.819974,3.05726 -1.736457,3.10867 2.104762,1.29571 7.606672,4.52545 7.679708,4.50816 0.05541,-0.0131 0.136771,-0.15862 0.180878,-0.32338 z m 18.106865,-1.78778 c -0.11677,-0.19018 -0.39831,-0.66727 -0.62566,-1.0602 l -0.41334,-0.71443 -0.76746,0.44195 c -0.42211,0.24308 -0.76746,0.48003 -0.76746,0.52657 0,0.0465 0.13179,0.22991 0.29286,0.40748 0.23696,0.26124 0.46564,0.36138 1.19807,0.52466 1.33111,0.29674 1.34183,0.29549 1.08299,-0.12603 z m -2.38755,-3.07719 c 0.21964,-0.12718 0.41288,-0.24044 0.42942,-0.25168 0.0508,-0.0346 -0.66456,-1.21497 -0.73773,-1.2172 -0.14085,-0.004 -1.47355,0.79945 -1.4745,0.88926 -5.4e-4,0.0514 0.14703,0.3519 0.32794,0.66779 l 0.32894,0.57434 0.36328,-0.21562 c 0.19981,-0.11859 0.543,-0.3197 0.76265,-0.44689 z m -2.04166,-2.5967 c 0.37507,-0.20954 0.7098,-0.426 0.74384,-0.48103 0.0717,-0.11599 -1.25005,-2.45998 -1.41893,-2.51622 -0.30588,-0.10186 -0.87746,0.87661 -0.87746,1.50208 0,0.31431 0.68629,1.87616 0.82439,1.87616 0.0254,0 0.35309,-0.17144 0.72816,-0.38099 z m -0.77242,-5.09718 c 0.51633,-0.21551 0.64279,-0.20382 0.99549,0.0921 l 0.30103,0.25254 0.82056,-1.3703 c 0.8187,-1.36719 0.82003,-1.37065 0.58572,-1.52115 -0.49905,-0.32055 -10.77194,-6.219359 -10.79354,-6.197773 -0.0125,0.01256 0.0713,0.357273 0.18641,0.766033 0.25668,0.911553 0.27737,2.492333 0.0443,3.38153 -0.2088,0.79647 -0.20387,1.0643 0.0246,1.33884 0.10249,0.12314 1.59231,1.10679 3.31069,2.18589 l 3.12431,1.96199 0.50798,-0.36459 c 0.27939,-0.20052 0.68099,-0.4368 0.89244,-0.52507 z M 83.594113,127.0613 c -0.485275,-0.45166 -0.39041,-1.16096 0.194844,-1.4568 0.5605,-0.28335 1.810561,-0.10184 2.022426,0.29365 0.205712,0.38399 0.123723,0.92258 -0.176345,1.15837 -0.402695,0.31644 -1.702791,0.31949 -2.040925,0.005 z m 4.499834,-0.0454 c -0.35868,-0.35833 -0.352935,-0.89251 0.01334,-1.23637 l 0.274704,-0.25793 3.851975,-0.0271 c 4.138057,-0.0291 4.231119,-0.0185 4.530739,0.51476 0.186928,0.3327 0.0983,0.755 -0.22089,1.05204 -0.224261,0.20873 -0.36089,0.21572 -4.210105,0.21572 h -3.978326 z m -4.518495,-8.14095 c -0.775615,-0.77484 -0.03198,-1.69722 1.260838,-1.56392 0.731804,0.0754 1.07935,0.37261 1.07935,0.92287 0,0.64272 -0.321123,0.85112 -1.311434,0.85112 -0.672967,0 -0.855852,-0.0374 -1.028754,-0.21007 z m -0.0051,-12.75599 c -0.409397,-0.40899 -0.411078,-0.78658 -0.0051,-1.19196 l 0.311293,-0.31098 h 2.558133 c 2.510757,0 2.563369,0.004 2.840956,0.24304 0.365637,0.31419 0.393486,0.949 0.05643,1.28602 -0.216713,0.21668 -0.338114,0.22774 -2.835659,0.25828 l -2.609238,0.0319 z m 3.091243,-8.806079 c -0.655416,-0.266 -0.845686,-1.011203 -0.377575,-1.478845 0.231616,-0.23139 0.353484,-0.261139 1.069794,-0.261139 0.7163,0 0.838169,0.02974 1.069785,0.261139 0.332765,0.332435 0.34012,0.80585 0.01833,1.179583 -0.206782,0.240164 -0.345865,0.288404 -0.931832,0.323196 -0.378817,0.02249 -0.76065,0.01172 -0.848507,-0.02393 z m 4.40722,-0.08143 c -0.208697,-0.09234 -0.374947,-0.270464 -0.448105,-0.480114 -0.132432,-0.379519 -0.07945,-0.597149 0.228621,-0.939059 0.214299,-0.237841 0.235608,-0.239377 3.320159,-0.239377 h 3.104475 l 0.231555,0.246234 c 0.329934,0.350848 0.310356,0.919345 -0.04309,1.251275 l -0.274633,0.257921 -2.893588,0.02496 c -2.271797,0.0196 -2.964892,-0.0066 -3.225396,-0.121841 z m -7.492871,-5.592263 c -0.775614,-0.774845 -0.03199,-1.697222 1.260838,-1.563923 0.731804,0.07546 1.07935,0.372615 1.07935,0.922878 0,0.642713 -0.321123,0.851118 -1.311434,0.851118 -0.672967,0 -0.855852,-0.03735 -1.028754,-0.210073 z m 3.620828,0 c -0.509508,-0.509006 -0.301819,-1.289994 0.397276,-1.493907 0.2756,-0.08039 2.530905,-0.106291 7.303548,-0.08388 l 6.904834,0.03243 0.25696,0.298504 c 0.33582,0.390092 0.33408,0.857613 -0.004,1.195788 L 101.794,91.84928 h -7.193265 c -7.020369,0 -7.198303,-0.0051 -7.403536,-0.210073 z m 1.838513,-5.45518 c -0.323089,-0.352647 -0.38386,-0.663842 -0.199264,-1.020447 0.383442,-0.740777 2.083381,-0.740777 2.466824,0 0.184595,0.356605 0.123824,0.6678 -0.199265,1.020447 -0.19084,0.208296 -0.325115,0.239377 -1.034152,0.239377 -0.709027,0 -0.843303,-0.03108 -1.034143,-0.239377 z m 4.509755,-0.0411 c -0.354035,-0.35369 -0.362723,-0.782722 -0.02384,-1.176443 l 0.256949,-0.298506 5.094428,-0.03243 c 3.464323,-0.02206 5.222013,0.0048 5.493163,0.08388 0.70764,0.206422 0.88333,0.903419 0.36917,1.464611 l -0.21931,0.239378 H 99.170678 93.82577 Z"
       id="path522"
       sodipodi:nodetypes="cssssscscscccscscssssccscscscccscsccsscssssssscscsccccccccccccsccssscscsccccscccssccscscscsssccssssssccsscssscsssscccsccscsscscccsssccccccsssccccssccccscscccssssssssssscsscsssssssscsscsccsccscsssscscscscccc" /></g></svg>
